<svg id="visual" viewBox="0 0 1024 50" width="1024" height="50" xmlns="http://www.w3.org/2000/svg" xmlns:xlink="http://www.w3.org/1999/xlink" version="1.1"><rect x="0" y="0" width="1024" height="50" fill="#fff"></rect><path d="M0 16L7.2 20.3C14.3 24.7 28.7 33.3 42.8 35.3C57 37.3 71 32.7 85.2 29.5C99.3 26.3 113.7 24.7 128 24.7C142.3 24.7 156.7 26.3 170.8 29.3C185 32.3 199 36.7 213.2 34.2C227.3 31.7 241.7 22.3 256 19C270.3 15.7 284.7 18.3 298.8 21.2C313 24 327 27 341.2 30.7C355.3 34.3 369.7 38.7 384 41.5C398.3 44.3 412.7 45.7 426.8 43.5C441 41.3 455 35.7 469.2 32.8C483.3 30 497.7 30 512 29.8C526.3 29.7 540.7 29.3 554.8 30.2C569 31 583 33 597.2 34.7C611.3 36.3 625.7 37.7 640 35.8C654.3 34 668.7 29 682.8 24.7C697 20.3 711 16.7 725.2 18.2C739.3 19.7 753.7 26.3 768 24.7C782.3 23 796.7 13 810.8 14.2C825 15.3 839 27.7 853.2 30.2C867.3 32.7 881.7 25.3 896 20C910.3 14.7 924.7 11.3 938.8 11.2C953 11 967 14 981.2 17.2C995.3 20.3 1009.7 23.7 1016.8 25.3L1024 27L1024 0L1016.8 0C1009.7 0 995.3 0 981.2 0C967 0 953 0 938.8 0C924.7 0 910.3 0 896 0C881.7 0 867.3 0 853.2 0C839 0 825 0 810.8 0C796.7 0 782.3 0 768 0C753.7 0 739.3 0 725.2 0C711 0 697 0 682.8 0C668.7 0 654.3 0 640 0C625.7 0 611.3 0 597.2 0C583 0 569 0 554.8 0C540.7 0 526.3 0 512 0C497.7 0 483.3 0 469.2 0C455 0 441 0 426.8 0C412.7 0 398.3 0 384 0C369.7 0 355.3 0 341.2 0C327 0 313 0 298.8 0C284.7 0 270.3 0 256 0C241.7 0 227.3 0 213.2 0C199 0 185 0 170.8 0C156.7 0 142.3 0 128 0C113.7 0 99.3 0 85.2 0C71 0 57 0 42.8 0C28.7 0 14.3 0 7.2 0L0 0Z" fill="#1891EC" stroke-linecap="round" stroke-linejoin="miter"></path></svg>