<svg width="104" height="34" viewBox="0 0 104 34" fill="none" xmlns="http://www.w3.org/2000/svg">
<g clip-path="url(#clip0_1_6)">
<path d="M13.72 28V19.516H5.404V28H2.968V8.96H5.404V17.22H13.72V8.96H16.156V28H13.72ZM31.4333 19.992H24.5173V28H22.0813V8.96H32.2733V11.256H24.5173V17.696H31.4333V19.992ZM45.2893 28L40.7533 20.244L36.3853 28H33.8373L39.4933 18.172L34.1173 8.96H36.8893L41.0893 16.212L45.2053 8.96H47.7253L42.3493 18.284L48.0333 28H45.2893ZM57.1508 24.64V7.28H59.4468V24.528C59.4468 25.032 59.5215 25.4147 59.6708 25.676C59.8388 25.9187 60.1655 26.04 60.6508 26.04H61.0988V28.14H60.4548C59.2228 28.14 58.3642 27.8133 57.8788 27.16C57.3935 26.5067 57.1508 25.6667 57.1508 24.64ZM74.6977 28.14C73.839 28.14 73.1483 27.944 72.6257 27.552C72.1217 27.16 71.767 26.6747 71.5617 26.096C70.647 26.8987 69.8163 27.468 69.0697 27.804C68.323 28.1213 67.5763 28.28 66.8297 28.28C65.6163 28.28 64.7203 27.888 64.1417 27.104C63.563 26.32 63.2737 25.3587 63.2737 24.22C63.2737 23.4547 63.4137 22.7733 63.6937 22.176C63.9737 21.5787 64.4497 21.112 65.1217 20.776C65.7937 20.4213 66.699 20.244 67.8377 20.244C68.3417 20.244 68.8923 20.2813 69.4897 20.356C70.087 20.412 70.6937 20.4867 71.3097 20.58V18.704C71.3097 17.6587 71.0763 16.9493 70.6097 16.576C70.1617 16.184 69.499 15.988 68.6217 15.988C67.427 15.988 66.0923 16.3147 64.6177 16.968L63.8897 15.064C64.7483 14.672 65.5697 14.3733 66.3537 14.168C67.1377 13.9627 67.931 13.86 68.7337 13.86C70.0403 13.86 71.039 14.0747 71.7297 14.504C72.4203 14.9333 72.8963 15.5027 73.1577 16.212C73.419 16.9213 73.5497 17.696 73.5497 18.536V24.528C73.5497 24.9573 73.6337 25.3213 73.8017 25.62C73.9697 25.9 74.3057 26.04 74.8097 26.04H75.1177V28.14H74.6977ZM65.5417 24.192C65.5417 24.8267 65.691 25.34 65.9897 25.732C66.2883 26.124 66.7177 26.32 67.2777 26.32C67.763 26.32 68.323 26.18 68.9577 25.9C69.5923 25.6013 70.3763 25.0133 71.3097 24.136V22.372C70.0403 22.1667 68.9203 22.064 67.9497 22.064C67.091 22.064 66.475 22.2413 66.1017 22.596C65.7283 22.9507 65.5417 23.4827 65.5417 24.192ZM89.5703 21.896C89.5703 23.8373 89.0849 25.3867 88.1143 26.544C87.1436 27.7013 85.7156 28.28 83.8303 28.28C81.9636 28.28 80.1156 27.7853 78.2863 26.796V7.28H80.5823V16.016C81.4223 15.232 82.1876 14.6813 82.8783 14.364C83.5876 14.028 84.3063 13.86 85.0343 13.86C86.4903 13.86 87.6103 14.42 88.3943 15.54C89.1783 16.66 89.5703 18.2373 89.5703 20.272V21.896ZM84.4743 16.016C83.9516 16.016 83.3916 16.156 82.7943 16.436C82.2156 16.716 81.4783 17.2947 80.5823 18.172V25.508C81.6836 25.9747 82.7196 26.208 83.6903 26.208C84.9409 26.208 85.8369 25.8253 86.3783 25.06C86.9196 24.276 87.1903 23.2213 87.1903 21.896V20.272C87.1903 18.816 86.9663 17.7427 86.5183 17.052C86.0703 16.3613 85.3889 16.016 84.4743 16.016ZM97.2075 26.236C99.0741 26.236 100.007 25.6013 100.007 24.332C100.007 23.7907 99.8395 23.3613 99.5035 23.044C99.1675 22.7267 98.5515 22.456 97.6555 22.232L96.1155 21.84C94.9768 21.56 94.1275 21.0747 93.5675 20.384C93.0075 19.6747 92.7275 18.8347 92.7275 17.864C92.7275 17.1547 92.8861 16.5013 93.2035 15.904C93.5208 15.288 94.0248 14.7933 94.7155 14.42C95.4061 14.0467 96.3021 13.86 97.4035 13.86C98.1128 13.86 98.8315 13.944 99.5595 14.112C100.306 14.2613 101.062 14.5227 101.827 14.896L101.099 16.828C99.7368 16.212 98.5048 15.904 97.4035 15.904C95.7795 15.904 94.9675 16.5107 94.9675 17.724C94.9675 18.1907 95.1168 18.592 95.4155 18.928C95.7141 19.264 96.2741 19.5347 97.0955 19.74L98.6355 20.132C99.8675 20.4307 100.773 20.916 101.351 21.588C101.93 22.26 102.219 23.128 102.219 24.192C102.219 24.9573 102.051 25.6573 101.715 26.292C101.398 26.908 100.875 27.3933 100.147 27.748C99.4381 28.1027 98.4768 28.28 97.2635 28.28C96.4608 28.28 95.6581 28.196 94.8555 28.028C94.0715 27.86 93.2595 27.5893 92.4195 27.216L93.0355 25.312C93.8381 25.6293 94.5661 25.8627 95.2195 26.012C95.8728 26.1613 96.5355 26.236 97.2075 26.236Z" fill="white"/>
</g>
<defs>
<clipPath id="clip0_1_6">
<rect width="104" height="34" fill="white"/>
</clipPath>
</defs>
</svg>
