<svg id="visual" viewBox="0 0 1024 50" width="1024" height="50" xmlns="http://www.w3.org/2000/svg" xmlns:xlink="http://www.w3.org/1999/xlink" version="1.1"><rect x="0" y="0" width="1024" height="50" fill="#fff"></rect><path d="M0 29L60 20L120 26L181 20L241 23L301 27L361 33L422 10L482 24L542 7L602 6L663 7L723 27L783 14L843 5L904 34L964 24L1024 16L1024 0L964 0L904 0L843 0L783 0L723 0L663 0L602 0L542 0L482 0L422 0L361 0L301 0L241 0L181 0L120 0L60 0L0 0Z" fill="#1891EC" stroke-linecap="square" stroke-linejoin="bevel"></path></svg>