<svg id="visual" viewBox="0 0 1024 50" width="1024" height="50" xmlns="http://www.w3.org/2000/svg" xmlns:xlink="http://www.w3.org/1999/xlink" version="1.1"><rect x="0" y="0" width="1024" height="50" fill="#fff"></rect><path d="M0 20L43 20L43 19L85 19L85 11L128 11L128 21L171 21L171 17L213 17L213 26L256 26L256 3L299 3L299 48L341 48L341 20L384 20L384 28L427 28L427 42L469 42L469 23L512 23L512 10L555 10L555 47L597 47L597 40L640 40L640 21L683 21L683 26L725 26L725 17L768 17L768 4L811 4L811 27L853 27L853 23L896 23L896 3L939 3L939 7L981 7L981 15L1024 15L1024 15L1024 0L1024 0L981 0L981 0L939 0L939 0L896 0L896 0L853 0L853 0L811 0L811 0L768 0L768 0L725 0L725 0L683 0L683 0L640 0L640 0L597 0L597 0L555 0L555 0L512 0L512 0L469 0L469 0L427 0L427 0L384 0L384 0L341 0L341 0L299 0L299 0L256 0L256 0L213 0L213 0L171 0L171 0L128 0L128 0L85 0L85 0L43 0L43 0L0 0Z" fill="#1891EC" stroke-linecap="square" stroke-linejoin="miter"></path></svg>